<svg xmlns="http://www.w3.org/2000/svg" width="636.475" height="321.656" viewBox="0 0 636.475 321.656">
  <g id="Group_29" data-name="Group 29" transform="translate(-382.314 -91)">
    <path id="Path_46" data-name="Path 46" d="M288.933,234.525c6.655,7.962,21.789,13.946,32.293,11.869,5.394-1.068,9.92-5.727,15.021-7.568a34.845,34.845,0,0,1,17.1-1.879c11.2,1.6,20.329,7.44,32.464,8.093,14.264.768,19.536-7.394,30.975-13.349,20.07-10.452,42.494,26.926,58.6,4.547,5.9-8.192,10.495-17.767,17.252-25.554,6.7-7.723,14.6-12.171,21.78-18.779,7.4-6.809,13.89-12.306,19.926-19.863,7.579-9.483,9.749-17.247,13.1-28.388,6.716-22.323,13.284-43.7,18.772-66.088a177.78,177.78,0,0,1,11.1-32.252c4.337-9.44,6.259-20.728,14.066-28.014,7.392-6.9,21.926-10.258,30.844-4.114,7.886,5.432,13.133,18.193,17.986,25.534,10.99,16.627,21.667,35.37,35.69,49.172,14.839,14.6,29.091,23.984,47.584,32.5-.919-.379-.543.041-.57-.036,9.5,3.925,19.883,13.516,26.588,20.072,7.521,7.352,16.17,14.316,23.808,22.005,3.884,3.911,6.139,8.291,10.344,12.2,4.889,4.549,9.9,5.838,15.956,8.262,10.084,4.037,18.288,10.19,28.541,14.284,16.609,6.631,34.938,6.622,51.946,11.608,8.521,2.5,17.436,5.193,25.22,9.4a28.907,28.907,0,0,1,8.26,6.761c1.365,1.487,6.707,9.262,5.445,6.57" transform="translate(96.067 162.313)" fill="none" stroke="#000" stroke-miterlimit="10" stroke-width="7"/>
    <circle id="Ellipse_12" data-name="Ellipse 12" cx="11.5" cy="11.5" r="11.5" transform="translate(457 353)" fill="#6298ff"/>
    <circle id="Ellipse_13" data-name="Ellipse 13" cx="11.5" cy="11.5" r="11.5" transform="translate(689 91)" fill="#fd4444"/>
    <text id="P300" transform="translate(660 156)" fill="#53b465" font-size="35" font-family="HelveticaNeue-Bold, Helvetica Neue" font-weight="700"><tspan x="0" y="0">P300</tspan></text>
  </g>
</svg>
