<svg xmlns="http://www.w3.org/2000/svg" width="380" height="324.999" viewBox="0 0 380 324.999">
  <g id="Group_1" data-name="Group 1" transform="translate(-205.5 -294.673)">
    <g id="key" transform="translate(274.5 535.672)">
      <text id="Welcome_to" data-name="Welcome to" transform="translate(-47 -76)" fill="#707070" font-size="60" font-family="ArialMT, Arial"><tspan x="9.956" y="54">Welcome to</tspan></text>
      <text id="mindtype" transform="translate(-68 -17)" fill="#52a0b4" stroke="#52a0b4" stroke-width="1" font-size="80" font-family="ArialMT, Arial"><tspan x="19.847" y="72">mind</tspan><tspan y="72" font-family="Arial-BoldMT, Arial" font-weight="700">type</tspan></text>
    </g>
    <g id="Group_1-2" data-name="Group 1" transform="translate(-1 -44)">
      <g id="brain" transform="translate(322.926 342.168)">
        <path id="Path_1" data-name="Path 1" d="M440.123,345.44v118.8s-.072,7.693-10.579,7.693c-5.244,0-12.653.807-15.5-5.5,0,0-6.663.641-11.061-2.558a82.377,82.377,0,0,1-12.169-11.956c-1.262-1.624-2.608-5.167-1.063-10.079,0,0-5.321.381-7.2-3.3-.88-1.727-4.672-11.471-6.134-15.646-.687-1.964-.895-6.016.626-10.432,0,0-3.062-3.978-2.945-6.229.283-5.412.693-12.144.773-13.233a7.826,7.826,0,0,1,4.2-6.809c.748-5.451.256-9.045,3.091-13.645a18.661,18.661,0,0,1,12.025-8.186c4.636-9.659,3.574-13.715,17.671-13.871,0,0,2.925-8.118,17.681-8.118C436.038,342.382,440.123,341.986,440.123,345.44Z" transform="translate(-374.098 -342.252)" fill="#6ecfdf" stroke="#52a0b4" stroke-miterlimit="10" stroke-width="7"/>
        <path id="Path_2" data-name="Path 2" d="M512.976,345.24v118.8s.073,7.693,10.578,7.693c5.245,0,12.654.807,15.5-5.5,0,0,6.664.64,11.062-2.558a82.45,82.45,0,0,0,12.168-11.955c1.263-1.624,2.608-5.168,1.063-10.079,0,0,5.321.379,7.2-3.3.881-1.728,4.673-11.473,6.133-15.646.688-1.964.9-6.016-.626-10.432,0,0,3.062-3.978,2.944-6.229-.283-5.412-.691-12.144-.773-13.233a7.827,7.827,0,0,0-4.2-6.809c-.748-5.451-.255-9.046-3.091-13.645a18.661,18.661,0,0,0-12.025-8.186c-4.636-9.659-3.574-13.715-17.67-13.871,0,0-2.925-8.118-17.682-8.118C517.062,342.182,512.976,341.786,512.976,345.24Z" transform="translate(-432.491 -342.168)" fill="#6ecfdf" stroke="#52a0b4" stroke-miterlimit="10" stroke-width="7"/>
      </g>
    </g>
  </g>
</svg>
